<svg id="visual" viewBox="0 0 1920 1080" width="1920" height="1080" xmlns="http://www.w3.org/2000/svg" xmlns:xlink="http://www.w3.org/1999/xlink" version="1.1"><rect x="0" y="0" width="1920" height="1080" fill="#fefeff"></rect><path d="M0 730L45.7 737.8C91.3 745.7 182.7 761.3 274.2 765.7C365.7 770 457.3 763 548.8 742.5C640.3 722 731.7 688 823 690C914.3 692 1005.7 730 1097 748.7C1188.3 767.3 1279.7 766.7 1371.2 766.3C1462.7 766 1554.3 766 1645.8 750.3C1737.3 734.7 1828.7 703.3 1874.3 687.7L1920 672L1920 1081L1874.3 1081C1828.7 1081 1737.3 1081 1645.8 1081C1554.3 1081 1462.7 1081 1371.2 1081C1279.7 1081 1188.3 1081 1097 1081C1005.7 1081 914.3 1081 823 1081C731.7 1081 640.3 1081 548.8 1081C457.3 1081 365.7 1081 274.2 1081C182.7 1081 91.3 1081 45.7 1081L0 1081Z" fill="#137eff"></path><path d="M0 792L45.7 787.5C91.3 783 182.7 774 274.2 781.5C365.7 789 457.3 813 548.8 815.5C640.3 818 731.7 799 823 787C914.3 775 1005.7 770 1097 760.5C1188.3 751 1279.7 737 1371.2 732.3C1462.7 727.7 1554.3 732.3 1645.8 741.8C1737.3 751.3 1828.7 765.7 1874.3 772.8L1920 780L1920 1081L1874.3 1081C1828.7 1081 1737.3 1081 1645.8 1081C1554.3 1081 1462.7 1081 1371.2 1081C1279.7 1081 1188.3 1081 1097 1081C1005.7 1081 914.3 1081 823 1081C731.7 1081 640.3 1081 548.8 1081C457.3 1081 365.7 1081 274.2 1081C182.7 1081 91.3 1081 45.7 1081L0 1081Z" fill="#9568ed"></path><path d="M0 840L45.7 849.5C91.3 859 182.7 878 274.2 871.7C365.7 865.3 457.3 833.7 548.8 835.7C640.3 837.7 731.7 873.3 823 890.2C914.3 907 1005.7 905 1097 890C1188.3 875 1279.7 847 1371.2 838.8C1462.7 830.7 1554.3 842.3 1645.8 847.8C1737.3 853.3 1828.7 852.7 1874.3 852.3L1920 852L1920 1081L1874.3 1081C1828.7 1081 1737.3 1081 1645.8 1081C1554.3 1081 1462.7 1081 1371.2 1081C1279.7 1081 1188.3 1081 1097 1081C1005.7 1081 914.3 1081 823 1081C731.7 1081 640.3 1081 548.8 1081C457.3 1081 365.7 1081 274.2 1081C182.7 1081 91.3 1081 45.7 1081L0 1081Z" fill="#cf49cb"></path><path d="M0 951L45.7 954.2C91.3 957.3 182.7 963.7 274.2 957.5C365.7 951.3 457.3 932.7 548.8 932C640.3 931.3 731.7 948.7 823 959.2C914.3 969.7 1005.7 973.3 1097 971.7C1188.3 970 1279.7 963 1371.2 958.3C1462.7 953.7 1554.3 951.3 1645.8 938.8C1737.3 926.3 1828.7 903.7 1874.3 892.3L1920 881L1920 1081L1874.3 1081C1828.7 1081 1737.3 1081 1645.8 1081C1554.3 1081 1462.7 1081 1371.2 1081C1279.7 1081 1188.3 1081 1097 1081C1005.7 1081 914.3 1081 823 1081C731.7 1081 640.3 1081 548.8 1081C457.3 1081 365.7 1081 274.2 1081C182.7 1081 91.3 1081 45.7 1081L0 1081Z" fill="#f2219d"></path><path d="M0 1032L45.7 1018.2C91.3 1004.3 182.7 976.7 274.2 970.2C365.7 963.7 457.3 978.3 548.8 990.5C640.3 1002.7 731.7 1012.3 823 1007.5C914.3 1002.7 1005.7 983.3 1097 979.8C1188.3 976.3 1279.7 988.7 1371.2 990.5C1462.7 992.3 1554.3 983.7 1645.8 980.5C1737.3 977.3 1828.7 979.7 1874.3 980.8L1920 982L1920 1081L1874.3 1081C1828.7 1081 1737.3 1081 1645.8 1081C1554.3 1081 1462.7 1081 1371.2 1081C1279.7 1081 1188.3 1081 1097 1081C1005.7 1081 914.3 1081 823 1081C731.7 1081 640.3 1081 548.8 1081C457.3 1081 365.7 1081 274.2 1081C182.7 1081 91.3 1081 45.7 1081L0 1081Z" fill="#ff006a"></path></svg>